<svg xmlns="http://www.w3.org/2000/svg" xmlns:xlink="http://www.w3.org/1999/xlink" width="500" zoomAndPan="magnify" viewBox="0 0 375 374.999991" height="500" preserveAspectRatio="xMidYMid meet" version="1.0"><defs><clipPath id="0f6e3e5f88"><path d="M 122 121.144531 L 247 121.144531 L 247 248 L 122 248 Z M 122 121.144531 " clip-rule="nonzero"/></clipPath><clipPath id="5e52a6a20b"><path d="M 70.863281 77.1875 L 144 77.1875 L 144 150 L 70.863281 150 Z M 70.863281 77.1875 " clip-rule="nonzero"/></clipPath><clipPath id="bd9dab991e"><path d="M 209 77.1875 L 281.613281 77.1875 L 281.613281 150 L 209 150 Z M 209 77.1875 " clip-rule="nonzero"/></clipPath><clipPath id="febf0b9fc9"><path d="M 209 215 L 281.613281 215 L 281.613281 287.9375 L 209 287.9375 Z M 209 215 " clip-rule="nonzero"/></clipPath><clipPath id="95202927f4"><path d="M 70.863281 215 L 144 215 L 144 287.9375 L 70.863281 287.9375 Z M 70.863281 215 " clip-rule="nonzero"/></clipPath></defs><g clip-path="url(#0f6e3e5f88)"><path fill="#000000" d="M 244.019531 230.960938 C 243.78125 230.722656 243.542969 230.507812 243.261719 230.292969 L 219.007812 210.019531 C 224.726562 200.753906 224.789062 188.992188 219.183594 179.679688 L 219.183594 148.605469 C 219.183594 148.582031 219.183594 148.5625 219.183594 148.5625 C 219.183594 148.496094 219.136719 148.433594 219.136719 148.34375 C 219.136719 148.300781 219.117188 148.238281 219.117188 148.214844 C 219.03125 147.71875 218.835938 147.261719 218.46875 146.9375 L 193.324219 121.773438 C 192.914062 121.382812 192.351562 121.144531 191.765625 121.144531 L 132.839844 121.144531 C 126.863281 121.144531 122.011719 125.996094 122.011719 131.972656 L 122.011719 235.921875 C 122.011719 241.898438 126.863281 246.75 132.839844 246.75 L 208.355469 246.75 C 214.332031 246.75 219.183594 241.898438 219.183594 235.921875 L 219.183594 231.222656 L 229.707031 243.804688 C 238.476562 253.894531 253.074219 240.773438 244.019531 230.960938 Z M 219.050781 194.710938 C 219.050781 201.335938 216.476562 207.574219 211.777344 212.25 C 207.078125 216.929688 200.859375 219.527344 194.234375 219.527344 C 187.609375 219.527344 181.371094 216.953125 176.691406 212.25 C 167.011719 202.570312 167.011719 186.828125 176.691406 177.167969 C 181.371094 172.492188 187.609375 169.894531 194.234375 169.894531 C 200.859375 169.894531 207.097656 172.46875 211.777344 177.167969 C 216.453125 181.867188 219.050781 188.085938 219.050781 194.710938 Z M 214.851562 235.921875 C 214.851562 239.496094 211.925781 242.417969 208.355469 242.417969 L 132.839844 242.417969 C 129.265625 242.417969 126.34375 239.496094 126.34375 235.921875 L 126.34375 131.972656 C 126.34375 128.402344 129.265625 125.476562 132.839844 125.476562 L 189.601562 125.476562 L 189.601562 148.5625 C 189.601562 149.753906 190.574219 150.726562 191.765625 150.726562 L 214.851562 150.726562 L 214.851562 174.117188 C 209.351562 168.617188 202.03125 165.582031 194.257812 165.582031 C 186.804688 165.582031 179.789062 168.378906 174.375 173.445312 L 141.285156 173.445312 C 140.09375 173.445312 139.121094 174.417969 139.121094 175.609375 C 139.121094 176.800781 140.09375 177.777344 141.285156 177.777344 L 170.585938 177.777344 C 168.378906 180.871094 166.839844 184.292969 165.972656 187.867188 L 141.285156 187.867188 C 140.09375 187.867188 139.121094 188.84375 139.121094 190.03125 C 139.121094 191.222656 140.09375 192.199219 141.285156 192.199219 L 165.238281 192.199219 C 164.957031 195.578125 165.257812 198.976562 166.125 202.269531 L 141.285156 202.269531 C 140.09375 202.269531 139.121094 203.242188 139.121094 204.433594 C 139.121094 205.625 140.09375 206.601562 141.285156 206.601562 L 167.683594 206.601562 C 169.09375 209.761719 171.0625 212.726562 173.660156 215.328125 C 174.136719 215.804688 174.65625 216.257812 175.175781 216.691406 L 141.285156 216.691406 C 140.09375 216.691406 139.121094 217.664062 139.121094 218.855469 C 139.121094 220.046875 140.09375 221.023438 141.285156 221.023438 L 181.78125 221.023438 C 185.722656 222.886719 189.96875 223.835938 194.257812 223.835938 C 199.539062 223.835938 204.78125 222.386719 209.4375 219.550781 L 214.851562 226.023438 Z M 214.851562 235.921875 " fill-opacity="1" fill-rule="nonzero"/></g><path fill="#000000" d="M 141.285156 163.351562 L 170.585938 163.351562 C 171.777344 163.351562 172.75 162.378906 172.75 161.1875 C 172.75 159.996094 171.777344 159.023438 170.585938 159.023438 L 141.285156 159.023438 C 140.09375 159.023438 139.121094 159.996094 139.121094 161.1875 C 139.121094 162.378906 140.09375 163.351562 141.285156 163.351562 Z M 141.285156 163.351562 " fill-opacity="1" fill-rule="nonzero"/><g clip-path="url(#5e52a6a20b)"><path fill="#1c64c3" d="M 80.160156 149.335938 L 70.863281 149.335938 L 70.863281 77.1875 L 143.011719 77.1875 L 143.011719 86.480469 L 80.160156 86.480469 Z M 80.160156 149.335938 " fill-opacity="1" fill-rule="nonzero"/></g><g clip-path="url(#bd9dab991e)"><path fill="#1c64c3" d="M 281.554688 149.335938 L 272.257812 149.335938 L 272.257812 86.480469 L 209.40625 86.480469 L 209.40625 77.1875 L 281.554688 77.1875 Z M 281.554688 149.335938 " fill-opacity="1" fill-rule="nonzero"/></g><g clip-path="url(#febf0b9fc9)"><path fill="#1c64c3" d="M 281.554688 287.878906 L 209.40625 287.878906 L 209.40625 278.582031 L 272.257812 278.582031 L 272.257812 215.730469 L 281.554688 215.730469 Z M 281.554688 287.878906 " fill-opacity="1" fill-rule="nonzero"/></g><g clip-path="url(#95202927f4)"><path fill="#1c64c3" d="M 143.011719 287.878906 L 70.863281 287.878906 L 70.863281 215.730469 L 80.160156 215.730469 L 80.160156 278.582031 L 143.011719 278.582031 Z M 143.011719 287.878906 " fill-opacity="1" fill-rule="nonzero"/></g></svg>